<svg width="24" height="24" viewBox="0 0 24 24" fill="none" xmlns="http://www.w3.org/2000/svg">
<mask id="mask0_1410_4096" style="mask-type:luminance" maskUnits="userSpaceOnUse" x="1" y="1" width="22" height="22">
<path fill-rule="evenodd" clip-rule="evenodd" d="M3.2 13.1H5.4V11.45C5.4 9.3237 7.1237 7.6 9.25 7.6H14.75C16.8763 7.6 18.6 9.3237 18.6 11.45V13.1H20.8C21.1038 13.1 21.35 12.8538 21.35 12.55V3.2C21.35 2.89625 21.1038 2.65 20.8 2.65H3.2C2.89625 2.65 2.65 2.89625 2.65 3.2V12.55C2.65 12.8538 2.89625 13.1 3.2 13.1ZM20.8 14.75H18.6H16.95H7.05H5.4H3.2C1.98497 14.75 1 13.765 1 12.55V3.2C1 1.98497 1.98497 1 3.2 1H20.8C22.015 1 23 1.98497 23 3.2V12.55C23 13.765 22.015 14.75 20.8 14.75ZM9.25 9.25C8.035 9.25 7.05 10.235 7.05 11.45V13.1H8.7H15.3H16.95V11.45C16.95 10.235 15.965 9.25 14.75 9.25H9.25ZM8.425 16.95C7.96938 16.95 7.6 17.3194 7.6 17.775V22.175C7.6 22.6306 7.96938 23 8.425 23C8.88062 23 9.25 22.6306 9.25 22.175V17.775C9.25 17.3194 8.88062 16.95 8.425 16.95ZM11.45 17.775C11.45 17.3194 11.8194 16.95 12.275 16.95C12.7306 16.95 13.1 17.3194 13.1 17.775V22.175C13.1 22.6306 12.7306 23 12.275 23C11.8194 23 11.45 22.6306 11.45 22.175V17.775ZM16.125 16.95C15.6694 16.95 15.3 17.3194 15.3 17.775V22.175C15.3 22.6306 15.6694 23 16.125 23C16.5806 23 16.95 22.6306 16.95 22.175V17.775C16.95 17.3194 16.5806 16.95 16.125 16.95Z" fill="white"/>
</mask>
<g mask="url(#mask0_1410_4096)">
<rect width="24" height="24" fill="white"/>
</g>
</svg>
