<svg width="25" height="24" viewBox="0 0 25 24" fill="none" xmlns="http://www.w3.org/2000/svg">
<path d="M7.37988 4.81V2.75" stroke="white" stroke-width="1.5" stroke-linecap="round" stroke-linejoin="round"/>
<path d="M17.6592 4.81V2.75" stroke="white" stroke-width="1.5" stroke-linecap="round" stroke-linejoin="round"/>
<path d="M18.5695 3.78027H6.46953C4.69953 3.78027 3.26953 5.21027 3.26953 6.98027V18.0603C3.26953 19.8303 4.69953 21.2603 6.46953 21.2603H18.5795C20.3495 21.2603 21.7795 19.8303 21.7795 18.0603V6.98027C21.7695 5.21027 20.3395 3.78027 18.5695 3.78027Z" stroke="white" stroke-width="1.5" stroke-linecap="round" stroke-linejoin="round"/>
<path d="M3.26953 7.90039H21.7695" stroke="white" stroke-width="1.5" stroke-linecap="round" stroke-linejoin="round"/>
<path d="M18.5195 12C19.0718 12 19.5195 11.5523 19.5195 11C19.5195 10.4477 19.0718 10 18.5195 10C17.9672 10 17.5195 10.4477 17.5195 11C17.5195 11.5523 17.9672 12 18.5195 12Z" fill="white"/>
<path d="M14.5195 12C15.0718 12 15.5195 11.5523 15.5195 11C15.5195 10.4477 15.0718 10 14.5195 10C13.9672 10 13.5195 10.4477 13.5195 11C13.5195 11.5523 13.9672 12 14.5195 12Z" fill="white"/>
<path d="M10.5195 12C11.0718 12 11.5195 11.5523 11.5195 11C11.5195 10.4477 11.0718 10 10.5195 10C9.96725 10 9.51953 10.4477 9.51953 11C9.51953 11.5523 9.96725 12 10.5195 12Z" fill="white"/>
<path d="M6.51953 12C7.07182 12 7.51953 11.5523 7.51953 11C7.51953 10.4477 7.07182 10 6.51953 10C5.96725 10 5.51953 10.4477 5.51953 11C5.51953 11.5523 5.96725 12 6.51953 12Z" fill="white"/>
<path d="M18.5195 15.4902C19.0718 15.4902 19.5195 15.0425 19.5195 14.4902C19.5195 13.9379 19.0718 13.4902 18.5195 13.4902C17.9672 13.4902 17.5195 13.9379 17.5195 14.4902C17.5195 15.0425 17.9672 15.4902 18.5195 15.4902Z" fill="white"/>
<path d="M14.5195 15.4902C15.0718 15.4902 15.5195 15.0425 15.5195 14.4902C15.5195 13.9379 15.0718 13.4902 14.5195 13.4902C13.9672 13.4902 13.5195 13.9379 13.5195 14.4902C13.5195 15.0425 13.9672 15.4902 14.5195 15.4902Z" fill="white"/>
<path d="M10.5195 15.4902C11.0718 15.4902 11.5195 15.0425 11.5195 14.4902C11.5195 13.9379 11.0718 13.4902 10.5195 13.4902C9.96725 13.4902 9.51953 13.9379 9.51953 14.4902C9.51953 15.0425 9.96725 15.4902 10.5195 15.4902Z" fill="white"/>
<path d="M6.51953 15.4902C7.07182 15.4902 7.51953 15.0425 7.51953 14.4902C7.51953 13.9379 7.07182 13.4902 6.51953 13.4902C5.96725 13.4902 5.51953 13.9379 5.51953 14.4902C5.51953 15.0425 5.96725 15.4902 6.51953 15.4902Z" fill="white"/>
<path d="M14.5195 18.9697C15.0718 18.9697 15.5195 18.522 15.5195 17.9697C15.5195 17.4174 15.0718 16.9697 14.5195 16.9697C13.9672 16.9697 13.5195 17.4174 13.5195 17.9697C13.5195 18.522 13.9672 18.9697 14.5195 18.9697Z" fill="white"/>
<path d="M10.5195 18.9697C11.0718 18.9697 11.5195 18.522 11.5195 17.9697C11.5195 17.4174 11.0718 16.9697 10.5195 16.9697C9.96725 16.9697 9.51953 17.4174 9.51953 17.9697C9.51953 18.522 9.96725 18.9697 10.5195 18.9697Z" fill="white"/>
<path d="M6.51953 18.9697C7.07182 18.9697 7.51953 18.522 7.51953 17.9697C7.51953 17.4174 7.07182 16.9697 6.51953 16.9697C5.96725 16.9697 5.51953 17.4174 5.51953 17.9697C5.51953 18.522 5.96725 18.9697 6.51953 18.9697Z" fill="white"/>
</svg>
