<svg width="25" height="24" viewBox="0 0 25 24" fill="none" xmlns="http://www.w3.org/2000/svg">
<path d="M12.5195 21.25C17.6282 21.25 21.7695 17.1086 21.7695 12C21.7695 6.89137 17.6282 2.75 12.5195 2.75C7.4109 2.75 3.26953 6.89137 3.26953 12C3.26953 17.1086 7.4109 21.25 12.5195 21.25Z" stroke="white" stroke-width="1.5" stroke-linecap="round" stroke-linejoin="round"/>
<path d="M9.49954 14.1404L11.0095 10.8204C11.0795 10.6704 11.1895 10.5604 11.3395 10.4904L14.6595 8.98043C15.2195 8.73043 15.7895 9.30043 15.5395 9.86043L14.0295 13.1804C13.9595 13.3304 13.8495 13.4404 13.6995 13.5104L10.3795 15.0204C9.81955 15.2804 9.23954 14.7004 9.49954 14.1404Z" stroke="white" stroke-width="1.5" stroke-linecap="round" stroke-linejoin="round"/>
</svg>
