<svg width="21" height="20" viewBox="0 0 21 20" fill="none" xmlns="http://www.w3.org/2000/svg">
<path d="M19.5194 6.01002L12.9694 0.770018C11.6894 -0.249982 9.68941 -0.259982 8.41942 0.760018L1.86942 6.01002C0.929416 6.76002 0.359416 8.26002 0.559416 9.44002L1.81942 16.98C2.10942 18.67 3.67942 20 5.38942 20H15.9894C17.6794 20 19.2794 18.64 19.5694 16.97L20.8294 9.43002C21.0094 8.26002 20.4394 6.76002 19.5194 6.01002ZM11.4394 16C11.4394 16.41 11.0994 16.75 10.6894 16.75C10.2794 16.75 9.93942 16.41 9.93942 16V13C9.93942 12.59 10.2794 12.25 10.6894 12.25C11.0994 12.25 11.4394 12.59 11.4394 13V16Z" fill="#8446FF"/>
</svg>
