<svg width="25" height="24" viewBox="0 0 25 24" fill="none" xmlns="http://www.w3.org/2000/svg">
<path d="M9.19917 10.3596H5.83919C4.90919 10.3596 4.15918 9.60963 4.15918 8.67963V5.31964C4.15918 4.38964 4.90919 3.63965 5.83919 3.63965H9.19917C10.1292 3.63965 10.8792 4.38964 10.8792 5.31964V8.67963C10.8792 9.60963 10.1292 10.3596 9.19917 10.3596Z" stroke="white" stroke-width="1.5" stroke-linecap="round" stroke-linejoin="round"/>
<path d="M19.1992 10.3596H15.8392C14.9092 10.3596 14.1592 9.60963 14.1592 8.67963V5.31964C14.1592 4.38964 14.9092 3.63965 15.8392 3.63965H19.1992C20.1292 3.63965 20.8792 4.38964 20.8792 5.31964V8.67963C20.8792 9.60963 20.1292 10.3596 19.1992 10.3596Z" stroke="white" stroke-width="1.5" stroke-linecap="round" stroke-linejoin="round"/>
<path d="M9.19917 20.3596H5.83919C4.90919 20.3596 4.15918 19.6096 4.15918 18.6796V15.3196C4.15918 14.3896 4.90919 13.6396 5.83919 13.6396H9.19917C10.1292 13.6396 10.8792 14.3896 10.8792 15.3196V18.6796C10.8792 19.6096 10.1292 20.3596 9.19917 20.3596Z" stroke="white" stroke-width="1.5" stroke-linecap="round" stroke-linejoin="round"/>
<path d="M19.1992 20.3596H15.8392C14.9092 20.3596 14.1592 19.6096 14.1592 18.6796V15.3196C14.1592 14.3896 14.9092 13.6396 15.8392 13.6396H19.1992C20.1292 13.6396 20.8792 14.3896 20.8792 15.3196V18.6796C20.8792 19.6096 20.1292 20.3596 19.1992 20.3596Z" stroke="white" stroke-width="1.5" stroke-linecap="round" stroke-linejoin="round"/>
</svg>
