<svg width="22" height="16" viewBox="0 0 22 16" fill="none" xmlns="http://www.w3.org/2000/svg">
<path fill-rule="evenodd" clip-rule="evenodd" d="M11 0C15.154 0 19.0777 1.82468 21.7644 5.00734C22.1214 5.42931 22.0664 6.06064 21.6419 6.41538C21.4537 6.57335 21.2247 6.65002 20.9963 6.65002C20.7096 6.65002 20.425 6.5287 20.2261 6.29336C17.9224 3.56536 14.5593 2.00003 10.9999 2.00003C7.4406 2.00003 4.07746 3.56536 1.77375 6.294C1.57488 6.52934 1.29024 6.65071 1.00363 6.65071C0.775281 6.65071 0.546901 6.5733 0.358749 6.41602C-0.0665184 6.06069 -0.121447 5.43001 0.23552 5.00734C2.92294 1.82468 6.84597 0 11 0ZM8.99096 14C8.99096 12.896 9.89097 12 11 12C12.1089 12 13.0091 12.896 13.0091 14C13.0091 15.104 12.1089 16 11 16C9.89102 16 8.99096 15.104 8.99096 14ZM11 3.99999C8.03265 3.99999 5.23065 5.3033 3.3114 7.57601C2.95447 7.99867 3.00936 8.62935 3.43463 8.98462C3.62278 9.14196 3.85181 9.21932 4.08019 9.21932C4.36681 9.21932 4.65144 9.098 4.84967 8.86266C6.38523 7.04334 8.62733 5.99997 11 5.99997C13.3727 5.99997 15.6148 7.04334 17.151 8.86266C17.35 9.09864 17.6345 9.21932 17.9205 9.21932C18.1489 9.21932 18.3779 9.14265 18.566 8.98462C18.9913 8.62935 19.0462 7.99803 18.6893 7.57601C16.7693 5.30333 13.9673 3.99999 11 3.99999ZM6.38657 10.1453C7.53707 8.78199 9.21863 8 11 8C12.7813 8 14.4629 8.78199 15.6134 10.1453C15.9703 10.568 15.9155 11.1986 15.4902 11.554C15.302 11.7119 15.073 11.7886 14.8446 11.7886C14.5587 11.7886 14.274 11.668 14.0751 11.432C13.307 10.522 12.186 9.99992 11 9.99992C9.814 9.99992 8.69298 10.522 7.92482 11.432C7.72663 11.6673 7.44199 11.7886 7.15537 11.7886C6.92695 11.7886 6.69795 11.7113 6.50978 11.554C6.08451 11.1986 6.02958 10.568 6.38657 10.1453Z" fill="black"/>
</svg>
